<?xml version="1.0" encoding="utf-8"?>
<!-- Generator: Adobe Illustrator 28.1.0, SVG Export Plug-In . SVG Version: 6.00 Build 0)  -->
<svg version="1.1" id="Ebene_1" xmlns="http://www.w3.org/2000/svg" xmlns:xlink="http://www.w3.org/1999/xlink" x="0px" y="0px"
	 width="714.33px" height="714.33px" viewBox="0 0 714.33 714.33" enable-background="new 0 0 714.33 714.33" xml:space="preserve">
<g>
	<path fill="#041B2B" d="M59.52,2.83c-31.31,0-56.69,25.39-56.69,56.72v595.27c0,31.29,25.38,56.68,56.69,56.68h595.28
		c31.31,0,56.69-25.39,56.69-56.68V59.55c0-31.33-25.38-56.72-56.69-56.72H59.52z"/>
</g>
<g>
	<polygon fill="#00F2E5" points="255.28,355.37 255.28,192.16 197.22,192.16 169.24,349.54 141.26,192.16 83.21,192.16 
		83.21,355.37 113.52,355.37 113.52,197.99 139.63,355.37 198.85,355.37 224.97,197.99 224.97,355.37 	"/>
	<polygon fill="#00F2E5" points="600.81,197.99 600.81,355.37 631.12,355.37 631.12,192.16 573.06,192.16 545.08,349.54 
		517.1,192.16 459.05,192.16 459.05,355.37 489.36,355.37 489.36,197.99 515.47,355.37 574.69,355.37 	"/>
	<path fill="#00F2E5" d="M120.21,485.48l-15.55-3.85c-5.14-1.29-9.27-3.14-9.27-8.56c0-5.28,4.85-9.56,14.55-9.56
		c9.13,0,15.69,3.99,16.12,12.55h11.69c0-13.83-11.27-23.53-27.81-23.53c-16.69,0-26.11,8.98-26.11,20.54
		c0,10.41,6.28,16.83,16.69,19.4l17.12,4.28c6.56,1.71,9.7,4.85,9.7,9.27c0,6.14-6.13,10.56-16.69,10.56
		c-10.41,0-17.83-4.28-17.83-13.98H80.84c0.42,16.97,12.55,25.39,29.81,25.39c18.12,0,28.82-9.42,28.82-21.97
		C139.47,494.89,132.62,488.62,120.21,485.48z"/>
	<path fill="#00F2E5" d="M184.13,452.53c-18.26,0-30.1,11.12-30.1,30.52v14.41c0,19.4,11.84,30.53,30.1,30.53
		c18.26,0,29.95-11.13,29.95-30.53v-14.41C214.08,463.65,202.38,452.53,184.13,452.53z M201.95,497.46
		c0,14.84-7.28,19.12-17.83,19.12c-10.56,0-17.98-4.28-17.98-19.12v-14.41c0-13.41,7.42-19.11,17.98-19.11
		c10.55,0,17.83,5.7,17.83,19.11V497.46z"/>
	<path fill="#00F2E5" d="M538.19,462.23v-8.42h-12.12v72.9h12.12v-39.52c0-15.12,7.56-21.25,18.55-21.25h7.27v-12.13h-7.27
		C547.04,453.81,541.76,456.95,538.19,462.23z"/>
	<path fill="#00F2E5" d="M235.91,438.12v15.69h-10.13v11.41h10.13v61.49h12.12v-61.49h16.27v-11.41h-16.27v-21.4h16.98v-11.27
		h-11.84C243.47,421.14,235.91,427.13,235.91,438.12z"/>
	<path fill="#00F2E5" d="M489.41,458.66c-4.57-3.99-10.7-6.13-17.98-6.13c-18.26,0-29.96,11.12-29.96,30.52v14.41
		c0,19.4,11.7,30.53,29.96,30.53c7.28,0,13.41-2.14,17.98-6.13v4.85h12.12v-72.9h-12.12V458.66z M489.41,497.46
		c0,14.84-8.14,19.12-17.98,19.12c-10.56,0-17.83-4.28-17.83-19.12v-14.41c0-13.41,7.27-19.11,17.83-19.11
		c9.84,0,17.98,5.7,17.98,19.11V497.46z"/>
	<path fill="#00F2E5" d="M633.49,494.61v-11.56c-0.29-20.82-12.7-30.52-29.82-30.52c-18.26,0-30.1,11.12-30.1,30.52v14.41
		c0,19.4,11.84,30.53,30.1,30.53c16.12,0,28.39-8.84,29.67-24.25h-12.12c-1.29,9.7-8.7,12.84-17.55,12.84
		c-10.56,0-17.97-4.28-17.97-19.12v-2.85H633.49z M585.7,483.05c0-14.55,7.41-19.4,17.97-19.4c9.56,0,17.41,4.85,17.69,19.4v0.86
		H585.7V483.05z"/>
	<polygon fill="#00F2E5" points="404.1,523.14 390.69,453.81 368.43,453.81 355.02,523.14 342.04,453.81 329.35,453.81 
		343.9,526.71 365.87,526.71 379.56,457.38 393.26,526.71 415.22,526.71 429.78,453.81 417.08,453.81 	"/>
	<path fill="#00F2E5" d="M298.82,465.22h17.83v-11.41h-17.83v-16.26h-11.84v16.26h-10.99v11.41h10.7v43.37
		c0,9.98,5,18.12,19.4,18.12h10.85v-11.42h-18.12V465.22z"/>
	<path fill="#00F2E5" d="M299.57,349.9c9.33,7.54,22.62,11.3,39.87,11.3c11.97,0,23.43-1.79,34.39-5.36
		c10.96-3.57,20.25-8.54,27.86-14.92h0.47l0.23,14.45h25.65v-89.99h-25.88v36.33l-36.94-29.52c6.62-3.92,12.41-7.68,17.12-11.24
		c7.61-5.75,13.13-11.55,16.56-17.37c3.41-5.83,5.13-12.01,5.13-18.54c0-12.28-4.83-21.8-14.46-28.56
		c-9.64-6.76-22.93-10.14-39.87-10.14c-16.95,0-30.16,3.38-39.64,10.14c-9.48,6.76-14.22,16.28-14.22,28.56
		c0,4.98,0.93,9.79,2.8,14.46c1.86,4.66,4.89,9.36,9.09,14.1c3.98,4.51,9.34,9.55,15.99,15.1c-6.77,4.06-12.61,7.95-17.27,11.6
		c-7.54,5.91-12.91,11.81-16.09,17.72c-3.19,5.91-4.78,12.51-4.78,19.82C285.58,331.67,290.24,342.36,299.57,349.9z M323.59,225.74
		c0-5.91,2.33-10.41,6.99-13.52c4.66-3.11,11.19-4.67,19.59-4.67c8.54,0,15.03,1.52,19.46,4.55c4.43,3.03,6.65,7.58,6.65,13.64
		c0,3.73-1.09,7.23-3.26,10.49c-2.18,3.27-6.07,6.84-11.66,10.73c-3.98,2.76-9.25,5.94-15.67,9.49c-4-3.36-7.46-6.43-10.21-9.14
		c-4.36-4.28-7.43-8.12-9.21-11.54C324.48,232.35,323.59,229,323.59,225.74z M318.92,303.85c2.33-3.73,6.18-7.54,11.54-11.43
		c3.46-2.5,7.75-5.18,12.72-8l47.16,37.99c-4.46,3.66-9.02,6.67-13.71,8.95c-8.94,4.35-18.62,6.53-29.03,6.53
		c-10.26,0-18.19-1.94-23.78-5.83c-5.6-3.88-8.39-9.33-8.39-16.32C315.43,311.54,316.59,307.58,318.92,303.85z"/>
</g>
</svg>
